G04 #@! TF.GenerationSoftware,KiCad,Pcbnew,(6.0.6)*
G04 #@! TF.CreationDate,2022-07-16T18:53:49+09:00*
G04 #@! TF.ProjectId,S1_FM_OPNA,53315f46-4d5f-44f5-904e-412e6b696361,0.1.4*
G04 #@! TF.SameCoordinates,PX22a3ad0PY8f85f18*
G04 #@! TF.FileFunction,Soldermask,Bot*
G04 #@! TF.FilePolarity,Negative*
%FSLAX46Y46*%
G04 Gerber Fmt 4.6, Leading zero omitted, Abs format (unit mm)*
G04 Created by KiCad (PCBNEW (6.0.6)) date 2022-07-16 18:53:49*
%MOMM*%
%LPD*%
G01*
G04 APERTURE LIST*
G04 Aperture macros list*
%AMRoundRect*
0 Rectangle with rounded corners*
0 $1 Rounding radius*
0 $2 $3 $4 $5 $6 $7 $8 $9 X,Y pos of 4 corners*
0 Add a 4 corners polygon primitive as box body*
4,1,4,$2,$3,$4,$5,$6,$7,$8,$9,$2,$3,0*
0 Add four circle primitives for the rounded corners*
1,1,$1+$1,$2,$3*
1,1,$1+$1,$4,$5*
1,1,$1+$1,$6,$7*
1,1,$1+$1,$8,$9*
0 Add four rect primitives between the rounded corners*
20,1,$1+$1,$2,$3,$4,$5,0*
20,1,$1+$1,$4,$5,$6,$7,0*
20,1,$1+$1,$6,$7,$8,$9,0*
20,1,$1+$1,$8,$9,$2,$3,0*%
G04 Aperture macros list end*
%ADD10O,2.600000X1.400000*%
%ADD11R,1.700000X1.700000*%
%ADD12O,1.700000X1.700000*%
%ADD13C,3.200000*%
%ADD14R,1.600000X1.600000*%
%ADD15C,1.600000*%
%ADD16R,1.500000X1.500000*%
%ADD17O,1.500000X1.500000*%
%ADD18C,1.440000*%
%ADD19O,1.600000X1.600000*%
%ADD20O,1.000000X2.540000*%
%ADD21RoundRect,0.450000X0.450000X0.450000X-0.450000X0.450000X-0.450000X-0.450000X0.450000X-0.450000X0*%
%ADD22C,1.800000*%
G04 APERTURE END LIST*
D10*
X2540000Y52705000D03*
X7540000Y47705000D03*
X7540000Y50205000D03*
X7540000Y57705000D03*
X7540000Y55205000D03*
D11*
X118618000Y20955000D03*
D12*
X118618000Y18415000D03*
X118618000Y15875000D03*
D13*
X6858000Y6985000D03*
D14*
X39155380Y19685000D03*
D15*
X36655380Y19685000D03*
X90678000Y74930000D03*
X90678000Y72430000D03*
D14*
X23368000Y65405000D03*
D15*
X20868000Y65405000D03*
D16*
X56388000Y34290000D03*
D17*
X48768000Y34290000D03*
D18*
X55118000Y52070000D03*
X52578000Y54610000D03*
X50038000Y52070000D03*
D15*
X38608000Y50165000D03*
D19*
X46228000Y50165000D03*
D15*
X34798000Y73025000D03*
D19*
X27178000Y73025000D03*
D10*
X2540000Y34290000D03*
X7540000Y29290000D03*
X7540000Y31790000D03*
X7540000Y39290000D03*
X7540000Y36790000D03*
D14*
X157988000Y27305000D03*
D19*
X160528000Y27305000D03*
X163068000Y27305000D03*
X165608000Y27305000D03*
X168148000Y27305000D03*
X170688000Y27305000D03*
X173228000Y27305000D03*
X175768000Y27305000D03*
X175768000Y34925000D03*
X173228000Y34925000D03*
X170688000Y34925000D03*
X168148000Y34925000D03*
X165608000Y34925000D03*
X163068000Y34925000D03*
X160528000Y34925000D03*
X157988000Y34925000D03*
D11*
X178308000Y20955000D03*
D12*
X178308000Y18415000D03*
X178308000Y15875000D03*
D13*
X6858000Y82169000D03*
D15*
X62738000Y48895000D03*
D19*
X70358000Y48895000D03*
D15*
X25908000Y49530000D03*
X28408000Y49530000D03*
D14*
X93223000Y42555000D03*
D19*
X95763000Y42555000D03*
X98303000Y42555000D03*
X100843000Y42555000D03*
X103383000Y42555000D03*
X105923000Y42555000D03*
X108463000Y42555000D03*
X111003000Y42555000D03*
X113543000Y42555000D03*
X116083000Y42555000D03*
X116083000Y50175000D03*
X113543000Y50175000D03*
X111003000Y50175000D03*
X108463000Y50175000D03*
X105923000Y50175000D03*
X103383000Y50175000D03*
X100843000Y50175000D03*
X98303000Y50175000D03*
X95763000Y50175000D03*
X93223000Y50175000D03*
D15*
X17653000Y15875000D03*
D19*
X17653000Y23495000D03*
D15*
X183388000Y65405000D03*
X183388000Y67905000D03*
X52578000Y73025000D03*
D19*
X44958000Y73025000D03*
D11*
X159893000Y20955000D03*
D12*
X159893000Y18415000D03*
X159893000Y15875000D03*
D20*
X93568000Y58420000D03*
X95348000Y58420000D03*
X97128000Y58420000D03*
X98908000Y58420000D03*
X100688000Y58420000D03*
X102468000Y58420000D03*
X104248000Y58420000D03*
X106028000Y58420000D03*
X107808000Y58420000D03*
X109588000Y58420000D03*
X111368000Y58420000D03*
X113148000Y58420000D03*
X114928000Y58420000D03*
X116708000Y58420000D03*
X118488000Y58420000D03*
X120268000Y58420000D03*
X122048000Y58420000D03*
X123828000Y58420000D03*
X125608000Y58420000D03*
X127388000Y58420000D03*
X129168000Y58420000D03*
X130948000Y58420000D03*
X132728000Y58420000D03*
X134508000Y58420000D03*
X136288000Y58420000D03*
X138068000Y58420000D03*
X139848000Y58420000D03*
X141628000Y58420000D03*
X143408000Y58420000D03*
X145188000Y58420000D03*
X146968000Y58420000D03*
X148748000Y58420000D03*
X148748000Y77470000D03*
X146968000Y77470000D03*
X145188000Y77470000D03*
X143408000Y77470000D03*
X141628000Y77470000D03*
X139848000Y77470000D03*
X138068000Y77470000D03*
X136288000Y77470000D03*
X134508000Y77470000D03*
X132728000Y77470000D03*
X130948000Y77470000D03*
X129168000Y77470000D03*
X127388000Y77470000D03*
X125608000Y77470000D03*
X123828000Y77470000D03*
X122048000Y77470000D03*
X120268000Y77470000D03*
X118488000Y77470000D03*
X116708000Y77470000D03*
X114928000Y77470000D03*
X113148000Y77470000D03*
X111368000Y77470000D03*
X109588000Y77470000D03*
X107808000Y77470000D03*
X106028000Y77470000D03*
X104248000Y77470000D03*
X102468000Y77470000D03*
X100688000Y77470000D03*
X98908000Y77470000D03*
X97128000Y77470000D03*
X95348000Y77470000D03*
X93568000Y77470000D03*
D15*
X21463000Y32385000D03*
D19*
X29083000Y32385000D03*
D15*
X52578000Y68580000D03*
D19*
X44958000Y68580000D03*
D11*
X109728000Y20955000D03*
D12*
X109728000Y18415000D03*
X109728000Y15875000D03*
D15*
X52563000Y77470000D03*
D19*
X44943000Y77470000D03*
D14*
X77978000Y50800000D03*
D19*
X77978000Y48260000D03*
X77978000Y45720000D03*
X77978000Y43180000D03*
X77978000Y40640000D03*
X77978000Y38100000D03*
X77978000Y35560000D03*
X85598000Y35560000D03*
X85598000Y38100000D03*
X85598000Y40640000D03*
X85598000Y43180000D03*
X85598000Y45720000D03*
X85598000Y48260000D03*
X85598000Y50800000D03*
D14*
X17018000Y64135000D03*
D15*
X14518000Y64135000D03*
D14*
X32258000Y22860000D03*
D15*
X29758000Y22860000D03*
X15113000Y38735000D03*
X15113000Y36235000D03*
D14*
X57658000Y75565000D03*
D15*
X57658000Y78065000D03*
X15113000Y52705000D03*
X15113000Y55205000D03*
X48133000Y39370000D03*
D19*
X55753000Y39370000D03*
D14*
X146558000Y42545000D03*
D19*
X149098000Y42545000D03*
X151638000Y42545000D03*
X154178000Y42545000D03*
X156718000Y42545000D03*
X159258000Y42545000D03*
X161798000Y42545000D03*
X161798000Y50165000D03*
X159258000Y50165000D03*
X156718000Y50165000D03*
X154178000Y50165000D03*
X151638000Y50165000D03*
X149098000Y50165000D03*
X146558000Y50165000D03*
D15*
X15113000Y44450000D03*
X15113000Y46950000D03*
X105918000Y32385000D03*
X105918000Y29885000D03*
X183388000Y60960000D03*
D19*
X183388000Y58420000D03*
D15*
X67778000Y83185000D03*
X65278000Y83185000D03*
D14*
X163068000Y55245000D03*
D19*
X165608000Y55245000D03*
X168148000Y55245000D03*
X170688000Y55245000D03*
X173228000Y55245000D03*
X175768000Y55245000D03*
X178308000Y55245000D03*
X178308000Y62865000D03*
X175768000Y62865000D03*
X173228000Y62865000D03*
X170688000Y62865000D03*
X168148000Y62865000D03*
X165608000Y62865000D03*
X163068000Y62865000D03*
D14*
X109728000Y27305000D03*
D19*
X112268000Y27305000D03*
X114808000Y27305000D03*
X117348000Y27305000D03*
X119888000Y27305000D03*
X122428000Y27305000D03*
X124968000Y27305000D03*
X127508000Y27305000D03*
X127508000Y34925000D03*
X124968000Y34925000D03*
X122428000Y34925000D03*
X119888000Y34925000D03*
X117348000Y34925000D03*
X114808000Y34925000D03*
X112268000Y34925000D03*
X109728000Y34925000D03*
D15*
X42418000Y45720000D03*
X44918000Y45720000D03*
X62738000Y52705000D03*
X65238000Y52705000D03*
D14*
X123698000Y42545000D03*
D19*
X126238000Y42545000D03*
X128778000Y42545000D03*
X131318000Y42545000D03*
X133858000Y42545000D03*
X136398000Y42545000D03*
X138938000Y42545000D03*
X138938000Y50165000D03*
X136398000Y50165000D03*
X133858000Y50165000D03*
X131318000Y50165000D03*
X128778000Y50165000D03*
X126238000Y50165000D03*
X123698000Y50165000D03*
D11*
X171323000Y20955000D03*
D12*
X171323000Y18415000D03*
X171323000Y15875000D03*
D14*
X62738000Y64135000D03*
D19*
X62738000Y61595000D03*
X62738000Y59055000D03*
X62738000Y56515000D03*
X70358000Y56515000D03*
X70358000Y59055000D03*
X70358000Y61595000D03*
X70358000Y64135000D03*
D14*
X41148000Y80645000D03*
D15*
X38648000Y80645000D03*
D14*
X77978000Y78105000D03*
D19*
X77978000Y75565000D03*
X77978000Y73025000D03*
X77978000Y70485000D03*
X77978000Y67945000D03*
X77978000Y65405000D03*
X77978000Y62865000D03*
X77978000Y60325000D03*
X85598000Y60325000D03*
X85598000Y62865000D03*
X85598000Y65405000D03*
X85598000Y67945000D03*
X85598000Y70485000D03*
X85598000Y73025000D03*
X85598000Y75565000D03*
X85598000Y78105000D03*
D11*
X167513000Y20955000D03*
D12*
X167513000Y18415000D03*
X167513000Y15875000D03*
D15*
X34798000Y68580000D03*
D19*
X27178000Y68580000D03*
D15*
X85598000Y14605000D03*
X88098000Y14605000D03*
X39243000Y45720000D03*
D19*
X31623000Y45720000D03*
D15*
X34798000Y77470000D03*
D19*
X27178000Y77470000D03*
D11*
X163703000Y20955000D03*
D12*
X163703000Y18415000D03*
X163703000Y15875000D03*
D15*
X83058000Y54610000D03*
X80558000Y54610000D03*
X131318000Y32385000D03*
X131318000Y29885000D03*
D14*
X135128000Y27305000D03*
D19*
X137668000Y27305000D03*
X140208000Y27305000D03*
X142748000Y27305000D03*
X145288000Y27305000D03*
X147828000Y27305000D03*
X150368000Y27305000D03*
X150368000Y34925000D03*
X147828000Y34925000D03*
X145288000Y34925000D03*
X142748000Y34925000D03*
X140208000Y34925000D03*
X137668000Y34925000D03*
X135128000Y34925000D03*
D15*
X23368000Y58420000D03*
X23368000Y55920000D03*
D14*
X17018000Y71755000D03*
D15*
X14518000Y71755000D03*
X20828000Y41275000D03*
D19*
X28448000Y41275000D03*
D15*
X159258000Y60325000D03*
X159258000Y57825000D03*
X70993000Y52705000D03*
X68493000Y52705000D03*
D11*
X155448000Y61570000D03*
D12*
X155448000Y59030000D03*
X155448000Y56490000D03*
D15*
X154178000Y32385000D03*
X154178000Y29885000D03*
D14*
X23368000Y73025000D03*
D15*
X20868000Y73025000D03*
D16*
X60198000Y41910000D03*
D17*
X60198000Y34290000D03*
D15*
X52578000Y81915000D03*
D19*
X44958000Y81915000D03*
D14*
X27178000Y17145000D03*
D15*
X24678000Y17145000D03*
X34798000Y81915000D03*
D19*
X27178000Y81915000D03*
D15*
X165608000Y47625000D03*
X165608000Y45125000D03*
X67818000Y67945000D03*
X65318000Y67945000D03*
X152908000Y79375000D03*
X152908000Y76875000D03*
X38608000Y54610000D03*
D19*
X46228000Y54610000D03*
D14*
X44235380Y25400000D03*
D15*
X41735380Y25400000D03*
D14*
X27178000Y53340000D03*
D19*
X29718000Y53340000D03*
X32258000Y53340000D03*
X34798000Y53340000D03*
X34798000Y60960000D03*
X32258000Y60960000D03*
X29718000Y60960000D03*
X27178000Y60960000D03*
D15*
X119888000Y47625000D03*
X119888000Y45125000D03*
X74168000Y78105000D03*
X74168000Y75605000D03*
D11*
X73152000Y14605000D03*
D12*
X75692000Y14605000D03*
X78232000Y14605000D03*
D14*
X93853000Y22225000D03*
D15*
X91353000Y22225000D03*
X142748000Y47625000D03*
X142748000Y45125000D03*
D21*
X5588000Y71120000D03*
D22*
X5588000Y68620000D03*
X5588000Y66120000D03*
X8088000Y71120000D03*
X8088000Y68620000D03*
X8088000Y66120000D03*
D15*
X58928000Y46355000D03*
D19*
X58928000Y53975000D03*
D14*
X41148000Y73025000D03*
D15*
X38648000Y73025000D03*
X29718000Y64770000D03*
X32218000Y64770000D03*
X13208000Y15875000D03*
D19*
X13208000Y23495000D03*
D14*
X169418000Y42545000D03*
D19*
X171958000Y42545000D03*
X174498000Y42545000D03*
X177038000Y42545000D03*
X179578000Y42545000D03*
X182118000Y42545000D03*
X184658000Y42545000D03*
X184658000Y50165000D03*
X182118000Y50165000D03*
X179578000Y50165000D03*
X177038000Y50165000D03*
X174498000Y50165000D03*
X171958000Y50165000D03*
X169418000Y50165000D03*
D15*
X72263000Y35560000D03*
D19*
X64643000Y35560000D03*
D11*
X114808000Y20955000D03*
D12*
X114808000Y18415000D03*
X114808000Y15875000D03*
D15*
X21463000Y27940000D03*
D19*
X29083000Y27940000D03*
D14*
X62738000Y79375000D03*
D19*
X62738000Y76835000D03*
X62738000Y74295000D03*
X62738000Y71755000D03*
X70358000Y71755000D03*
X70358000Y74295000D03*
X70358000Y76835000D03*
X70358000Y79375000D03*
D15*
X55753000Y44450000D03*
D19*
X48133000Y44450000D03*
D15*
X20828000Y36830000D03*
D19*
X28448000Y36830000D03*
D15*
X15113000Y30480000D03*
X15113000Y27980000D03*
X74168000Y47625000D03*
X74168000Y45125000D03*
X32258000Y39370000D03*
X32258000Y36870000D03*
D21*
X5588000Y20955000D03*
D22*
X5588000Y18455000D03*
X5588000Y15955000D03*
X8088000Y20955000D03*
X8088000Y18455000D03*
X8088000Y15955000D03*
D14*
X41148000Y65405000D03*
D15*
X38648000Y65405000D03*
X70993000Y40005000D03*
D19*
X63373000Y40005000D03*
D15*
X70358000Y44450000D03*
D19*
X62738000Y44450000D03*
D18*
X50038000Y61595000D03*
X47498000Y64135000D03*
X44958000Y61595000D03*
X58928000Y61595000D03*
X56388000Y64135000D03*
X53848000Y61595000D03*
D15*
X82169000Y14605000D03*
D19*
X82169000Y22225000D03*
D15*
X89408000Y41275000D03*
X89408000Y38775000D03*
X21463000Y22860000D03*
X23963000Y22860000D03*
X36703000Y30480000D03*
X39203000Y30480000D03*
X89408000Y47625000D03*
X89408000Y45125000D03*
X20828000Y45720000D03*
D19*
X28448000Y45720000D03*
D15*
X141478000Y81915000D03*
X138978000Y81915000D03*
D14*
X36068000Y33655000D03*
D19*
X38608000Y33655000D03*
X41148000Y33655000D03*
X43688000Y33655000D03*
X43688000Y41275000D03*
X41148000Y41275000D03*
X38608000Y41275000D03*
X36068000Y41275000D03*
G36*
X120846121Y8869998D02*
G01*
X120892614Y8816342D01*
X120904000Y8764000D01*
X120904000Y814190D01*
X120883998Y746069D01*
X120867095Y725095D01*
X120178905Y36905D01*
X120116593Y2879D01*
X120089810Y0D01*
X28246190Y0D01*
X28178069Y20002D01*
X28157095Y36905D01*
X27468905Y725095D01*
X27434879Y787407D01*
X27432000Y814190D01*
X27432000Y8764000D01*
X27452002Y8832121D01*
X27505658Y8878614D01*
X27558000Y8890000D01*
X120778000Y8890000D01*
X120846121Y8869998D01*
G37*
M02*
