M48
; DRILL file {KiCad (6.0.6)} date Sat Jul 16 18:53:58 2022
; FORMAT={-:-/ absolute / inch / decimal}
; #@! TF.CreationDate,2022-07-16T18:53:58+09:00
; #@! TF.GenerationSoftware,Kicad,Pcbnew,(6.0.6)
; #@! TF.FileFunction,Plated,1,2,PTH
FMAT,2
INCH
; #@! TA.AperFunction,Plated,PTH,ViaDrill
T1C0.0118
; #@! TA.AperFunction,Plated,PTH,ViaDrill
T2C0.0157
; #@! TA.AperFunction,Plated,PTH,ComponentDrill
T3C0.0236
; #@! TA.AperFunction,Plated,PTH,ComponentDrill
T4C0.0295
; #@! TA.AperFunction,Plated,PTH,ComponentDrill
T5C0.0315
; #@! TA.AperFunction,Plated,PTH,ComponentDrill
T6C0.0394
%
G90
G05
T1
X1.27Y0.525
X1.37Y0.525
X1.47Y0.525
X1.57Y0.525
X1.67Y0.525
X1.77Y0.525
X1.87Y0.525
X1.97Y0.525
X2.07Y0.525
X2.17Y0.525
X2.27Y0.525
X2.37Y0.525
X2.57Y0.525
X3.145Y1.775
X3.52Y0.525
X3.545Y0.6264
X3.545Y0.575
X3.57Y2.5
X3.57Y2.4
X3.57Y0.6028
X3.6658Y2.6458
X3.7852Y2.6902
X3.97Y0.825
X4.02Y0.825
X4.07Y0.825
X4.12Y0.825
X4.22Y0.625
X4.245Y1.55
X4.245Y1.5
X4.27Y1.5815
X4.27Y1.525
X4.3Y2.805
X4.325Y2.74
X4.345Y1.9
X4.3993Y2.8555
X4.42Y1.925
X4.42Y0.5829
X4.42Y0.5356
X4.47Y2.125
X4.48Y2.815
X4.53Y2.525
X4.57Y2.8
X4.5782Y0.795
X4.5975Y2.4575
X4.63Y2.36
X4.665Y2.7893
X4.7475Y0.859
X4.775Y2.7735
X4.785Y0.9266
X4.7857Y1.625
X4.795Y1.55
X4.87Y1.305
X4.89Y2.7578
X4.895Y0.847
X5.005Y2.735
X5.07Y2.925
X5.1326Y1.837
X5.145Y1.325
X5.17Y0.875
X5.22Y1.425
X5.2525Y2.4575
X5.295Y2.735
X5.32Y2.525
X5.3908Y1.5958
X5.405Y2.61
X5.445Y1.225
X5.495Y0.775
X5.595Y0.7
X5.711Y1.4986
X5.74Y1.765
X5.745Y0.5137
X5.807Y1.5086
X5.92Y1.525
X6.095Y1.025
X6.095Y0.725
X6.145Y1.5671
X6.145Y1.225
X6.195Y2.742
X6.245Y2.7578
X6.2917Y2.7735
X6.295Y0.975
X6.345Y2.7893
X6.37Y0.5137
X6.395Y2.8
X6.4458Y2.8174
X6.495Y2.95
X6.495Y0.975
X6.4962Y2.8344
X6.506Y0.5378
X6.5465Y2.8485
X6.645Y1.825
X6.795Y1.5671
X6.8073Y2.75
X6.82Y3.0
X6.845Y2.75
X6.87Y2.9
X6.895Y2.7449
X6.92Y2.925
X6.945Y2.75
X6.97Y2.95
X6.995Y2.775
X7.02Y2.975
X7.045Y2.775
X7.22Y2.075
T2
X0.095Y2.955
X0.18Y2.955
X0.36Y2.5404
X0.795Y2.3
X0.92Y1.725
X0.945Y3.375
X0.945Y2.4
X0.9942Y2.2539
X1.02Y3.375
X1.045Y1.875
X1.145Y1.375
X1.195Y1.9
X1.32Y1.39
X1.32Y1.05
X1.42Y0.95
X1.465Y0.91
X1.54Y1.07
X1.685Y1.165
X1.74Y1.165
X1.78Y1.07
X1.7973Y1.37
X1.875Y1.075
X2.095Y1.29
X2.12Y0.65
X2.17Y0.65
X2.1899Y1.0619
X2.195Y0.875
X2.215Y1.29
X2.245Y3.375
X2.245Y2.15
X2.25Y0.875
X2.295Y2.2
X2.32Y3.375
X2.32Y1.575
X2.32Y1.495
X2.34Y2.995
X2.35Y2.68
X2.35Y2.625
X2.545Y2.3
X2.57Y2.825
X2.582Y2.2254
X2.6063Y1.7471
X2.6071Y1.9121
X2.62Y2.3
X2.8825Y2.6125
X2.92Y2.675
X2.9366Y2.0664
X2.9567Y2.5355
X2.9772Y2.5778
X2.9775Y2.2966
X2.985Y2.0739
X3.055Y2.205
X3.085Y1.1
X3.13Y0.875
X3.17Y1.375
X3.1841Y1.1141
X3.3Y1.1147
X3.345Y0.875
X3.4083Y1.0633
X3.4291Y2.205
X3.4563Y1.1135
X3.495Y3.125
X3.495Y0.875
X3.5Y2.205
X3.52Y2.6
X3.53Y1.115
X3.57Y2.3
X3.62Y2.6
X3.645Y0.48
X3.6509Y0.5441
X3.72Y0.55
X3.87Y0.55
X3.915Y0.51
X3.92Y2.675
X3.96Y0.47
X4.035Y1.275
X4.1452Y0.514
X4.195Y2.675
X4.2825Y2.675
X4.355Y2.705
X4.44Y2.6119
X4.57Y1.8039
X4.57Y0.4994
X4.62Y1.175
X4.67Y1.245
X4.6963Y1.44
X4.7799Y2.6711
X4.8105Y2.1753
X4.8153Y2.075
X4.8153Y1.9129
X4.8153Y1.7996
X4.83Y1.245
X5.02Y1.295
X5.02Y1.175
X5.2065Y2.671
X5.22Y1.8
X5.27Y1.55
X5.3075Y1.8625
X5.32Y2.39
X5.405Y2.42
X5.4357Y2.7093
X5.4696Y1.8019
X5.495Y2.175
X5.545Y1.915
X5.5995Y1.4283
X5.62Y1.275
X5.67Y1.55
X5.7Y2.61
X5.7367Y2.6716
X5.8Y1.315
X5.8016Y1.1766
X6.02Y2.575
X6.0758Y2.9821
X6.0825Y2.6375
X6.22Y0.825
X6.22Y0.625
X6.22Y0.475
X6.2703Y2.5789
X6.37Y1.775
X6.7031Y2.8581
X6.77Y1.275
X7.145Y2.925
X7.145Y2.825
X7.145Y1.275
X7.185Y2.125
X7.22Y3.175
X7.32Y2.175
T4
X1.92Y1.35
X2.22Y1.35
X2.37Y1.65
X2.37Y1.35
T5
X0.52Y0.925
X0.52Y0.625
X0.5716Y2.825
X0.5716Y2.525
X0.595Y2.1734
X0.595Y2.075
X0.595Y1.8484
X0.595Y1.75
X0.595Y1.525
X0.595Y1.4266
X0.595Y1.2
X0.595Y1.1016
X0.67Y2.825
X0.67Y2.525
X0.695Y0.925
X0.695Y0.625
X0.82Y1.8
X0.82Y1.625
X0.82Y1.45
X0.8216Y2.875
X0.8216Y2.575
X0.845Y1.275
X0.845Y1.1
X0.845Y0.9
X0.92Y2.875
X0.92Y2.575
X0.92Y2.3
X0.92Y2.2016
X0.9434Y0.9
X0.9716Y0.675
X1.02Y1.95
X1.07Y3.225
X1.07Y3.05
X1.07Y2.875
X1.07Y2.7
X1.07Y2.4
X1.07Y2.1
X1.07Y0.675
X1.1184Y1.95
X1.12Y1.8
X1.12Y1.625
X1.12Y1.45
X1.145Y1.275
X1.145Y1.1
X1.17Y2.55
X1.17Y2.4
X1.17Y2.1
X1.1716Y0.9
X1.245Y1.8
X1.2684Y2.55
X1.27Y2.4
X1.27Y2.1
X1.27Y1.55
X1.27Y1.4516
X1.27Y0.9
X1.37Y3.225
X1.37Y3.05
X1.37Y2.875
X1.37Y2.7
X1.37Y2.4
X1.37Y2.1
X1.42Y1.625
X1.42Y1.325
X1.4431Y0.775
X1.445Y1.2
X1.52Y2.15
X1.52Y1.975
X1.52Y1.625
X1.52Y1.325
X1.5216Y3.175
X1.5216Y2.875
X1.5216Y2.575
X1.5416Y0.775
X1.5434Y1.2
X1.545Y1.8
X1.62Y3.175
X1.62Y2.875
X1.62Y2.575
X1.62Y1.625
X1.62Y1.325
X1.6431Y1.0
X1.67Y1.8
X1.72Y1.625
X1.72Y1.325
X1.7416Y1.0
X1.7684Y1.8
X1.7694Y3.05
X1.77Y3.225
X1.77Y2.875
X1.77Y2.7
X1.77Y2.425
X1.82Y2.15
X1.82Y1.975
X1.87Y2.525
X1.895Y1.75
X1.895Y1.55
X1.97Y2.425
X1.97Y2.05
X2.0694Y3.05
X2.07Y3.225
X2.07Y2.875
X2.07Y2.7
X2.07Y2.15
X2.12Y2.425
X2.17Y2.05
X2.195Y1.75
X2.195Y1.55
X2.22Y2.525
X2.27Y3.0734
X2.27Y2.975
X2.32Y2.425
X2.32Y2.125
X2.32Y1.825
X2.47Y3.125
X2.47Y3.025
X2.47Y2.925
X2.47Y2.825
X2.47Y2.525
X2.47Y2.425
X2.47Y2.325
X2.47Y2.225
X2.47Y2.075
X2.47Y1.925
X2.47Y1.75
X2.495Y1.575
X2.545Y1.4
X2.5684Y2.075
X2.57Y3.275
X2.5716Y2.675
X2.6684Y3.275
X2.67Y2.675
X2.6966Y2.075
X2.77Y3.125
X2.77Y3.025
X2.77Y2.925
X2.77Y2.825
X2.77Y2.525
X2.77Y2.425
X2.77Y2.325
X2.77Y2.225
X2.77Y1.925
X2.77Y1.75
X2.795Y2.075
X2.795Y1.575
X2.845Y1.4
X2.92Y3.075
X2.92Y2.9766
X2.92Y1.875
X2.92Y1.7766
X3.07Y3.075
X3.07Y2.975
X3.07Y2.875
X3.07Y2.775
X3.07Y2.675
X3.07Y2.575
X3.07Y2.475
X3.07Y2.375
X3.07Y2.0
X3.07Y1.9
X3.07Y1.8
X3.07Y1.7
X3.07Y1.6
X3.07Y1.5
X3.07Y1.4
X3.1716Y2.15
X3.235Y0.875
X3.235Y0.575
X3.27Y2.15
X3.37Y3.075
X3.37Y2.975
X3.37Y2.875
X3.37Y2.775
X3.37Y2.675
X3.37Y2.575
X3.37Y2.475
X3.37Y2.375
X3.37Y2.0
X3.37Y1.9
X3.37Y1.8
X3.37Y1.7
X3.37Y1.6
X3.37Y1.5
X3.37Y1.4
X3.37Y0.575
X3.4684Y0.575
X3.52Y1.875
X3.52Y1.7766
X3.52Y1.625
X3.52Y1.5266
X3.57Y2.95
X3.57Y2.8516
X3.5966Y0.875
X3.6702Y1.9754
X3.6702Y1.6754
X3.6838Y3.05
X3.6838Y2.3
X3.695Y0.875
X3.7539Y3.05
X3.7539Y2.3
X3.7702Y1.9754
X3.7702Y1.6754
X3.8239Y3.05
X3.8239Y2.3
X3.8702Y1.9754
X3.8702Y1.6754
X3.894Y3.05
X3.894Y2.3
X3.9641Y3.05
X3.9641Y2.3
X3.9702Y1.9754
X3.9702Y1.6754
X4.0342Y3.05
X4.0342Y2.3
X4.0702Y1.9754
X4.0702Y1.6754
X4.1043Y3.05
X4.1043Y2.3
X4.17Y1.275
X4.17Y1.1766
X4.1702Y1.9754
X4.1702Y1.6754
X4.1743Y3.05
X4.1743Y2.3
X4.2444Y3.05
X4.2444Y2.3
X4.2702Y1.9754
X4.2702Y1.6754
X4.3145Y3.05
X4.3145Y2.3
X4.32Y1.375
X4.32Y1.075
X4.3702Y1.9754
X4.3702Y1.6754
X4.3846Y3.05
X4.3846Y2.3
X4.42Y1.375
X4.42Y1.075
X4.4546Y3.05
X4.4546Y2.3
X4.4702Y1.9754
X4.4702Y1.6754
X4.52Y1.375
X4.52Y1.075
X4.5247Y3.05
X4.5247Y2.3
X4.5702Y1.9754
X4.5702Y1.6754
X4.5948Y3.05
X4.5948Y2.3
X4.62Y1.375
X4.62Y1.075
X4.6649Y3.05
X4.6649Y2.3
X4.72Y1.875
X4.72Y1.7766
X4.72Y1.375
X4.72Y1.075
X4.735Y3.05
X4.735Y2.3
X4.805Y3.05
X4.805Y2.3
X4.82Y1.375
X4.82Y1.075
X4.87Y1.975
X4.87Y1.675
X4.8751Y3.05
X4.8751Y2.3
X4.92Y1.375
X4.92Y1.075
X4.9452Y3.05
X4.9452Y2.3
X4.97Y1.975
X4.97Y1.675
X5.0153Y3.05
X5.0153Y2.3
X5.02Y1.375
X5.02Y1.075
X5.07Y1.975
X5.07Y1.675
X5.0854Y3.05
X5.0854Y2.3
X5.1554Y3.05
X5.1554Y2.3
X5.17Y1.975
X5.17Y1.675
X5.17Y1.275
X5.17Y1.1766
X5.2255Y3.05
X5.2255Y2.3
X5.27Y1.975
X5.27Y1.675
X5.2956Y3.05
X5.2956Y2.3
X5.32Y1.375
X5.32Y1.075
X5.3657Y3.05
X5.3657Y2.3
X5.37Y1.975
X5.37Y1.675
X5.42Y1.375
X5.42Y1.075
X5.4357Y3.05
X5.4357Y2.3
X5.47Y1.975
X5.47Y1.675
X5.4716Y3.225
X5.5058Y3.05
X5.5058Y2.3
X5.52Y1.375
X5.52Y1.075
X5.57Y3.225
X5.5759Y3.05
X5.5759Y2.3
X5.62Y1.875
X5.62Y1.7766
X5.62Y1.375
X5.62Y1.075
X5.646Y3.05
X5.646Y2.3
X5.7161Y3.05
X5.7161Y2.3
X5.72Y1.375
X5.72Y1.075
X5.77Y1.975
X5.77Y1.675
X5.7861Y3.05
X5.7861Y2.3
X5.82Y1.375
X5.82Y1.075
X5.8562Y3.05
X5.8562Y2.3
X5.87Y1.975
X5.87Y1.675
X5.92Y1.375
X5.92Y1.075
X5.97Y1.975
X5.97Y1.675
X6.02Y3.125
X6.02Y3.0266
X6.07Y1.975
X6.07Y1.675
X6.07Y1.275
X6.07Y1.1766
X6.17Y1.975
X6.17Y1.675
X6.22Y1.375
X6.22Y1.075
X6.27Y2.375
X6.27Y2.2766
X6.27Y1.975
X6.27Y1.675
X6.32Y1.375
X6.32Y1.075
X6.37Y1.975
X6.37Y1.675
X6.42Y2.475
X6.42Y2.175
X6.42Y1.375
X6.42Y1.075
X6.52Y2.475
X6.52Y2.175
X6.52Y1.875
X6.52Y1.7766
X6.52Y1.375
X6.52Y1.075
X6.62Y2.475
X6.62Y2.175
X6.62Y1.375
X6.62Y1.075
X6.67Y1.975
X6.67Y1.675
X6.72Y2.475
X6.72Y2.175
X6.72Y1.375
X6.72Y1.075
X6.77Y1.975
X6.77Y1.675
X6.82Y2.475
X6.82Y2.175
X6.82Y1.375
X6.82Y1.075
X6.87Y1.975
X6.87Y1.675
X6.92Y2.475
X6.92Y2.175
X6.92Y1.375
X6.92Y1.075
X6.97Y1.975
X6.97Y1.675
X7.02Y2.475
X7.02Y2.175
X7.07Y1.975
X7.07Y1.675
X7.17Y1.975
X7.17Y1.675
X7.22Y2.6734
X7.22Y2.575
X7.22Y2.4
X7.22Y2.3
X7.27Y1.975
X7.27Y1.675
T6
X0.22Y2.8
X0.22Y2.7016
X0.22Y2.6031
X0.22Y0.825
X0.22Y0.7266
X0.22Y0.6281
X0.3184Y2.8
X0.3184Y2.7016
X0.3184Y2.6031
X0.3184Y0.825
X0.3184Y0.7266
X0.3184Y0.6281
X2.88Y0.575
X2.98Y0.575
X3.08Y0.575
X4.32Y0.825
X4.32Y0.725
X4.32Y0.625
X4.52Y0.825
X4.52Y0.725
X4.52Y0.625
X4.67Y0.825
X4.67Y0.725
X4.67Y0.625
X6.12Y2.424
X6.12Y2.324
X6.12Y2.224
X6.295Y0.825
X6.295Y0.725
X6.295Y0.625
X6.445Y0.825
X6.445Y0.725
X6.445Y0.625
X6.595Y0.825
X6.595Y0.725
X6.595Y0.625
X6.745Y0.825
X6.745Y0.725
X6.745Y0.625
X7.02Y0.825
X7.02Y0.725
X7.02Y0.625
T3
G00X0.0764Y2.075
M15
G01X0.1236Y2.075
M16
G05
G00X0.0764Y1.35
M15
G01X0.1236Y1.35
M16
G05
G00X0.3205Y2.2719
M15
G01X0.2732Y2.2719
M16
G05
G00X0.3205Y2.1734
M15
G01X0.2732Y2.1734
M16
G05
G00X0.2732Y1.9766
M15
G01X0.3205Y1.9766
M16
G05
G00X0.2732Y1.8781
M15
G01X0.3205Y1.8781
M16
G05
G00X0.3205Y1.5469
M15
G01X0.2732Y1.5469
M16
G05
G00X0.3205Y1.4484
M15
G01X0.2732Y1.4484
M16
G05
G00X0.2732Y1.2516
M15
G01X0.3205Y1.2516
M16
G05
G00X0.2732Y1.1531
M15
G01X0.3205Y1.1531
M16
G05
T0
M30
